<svg width="26" height="30" viewBox="0 0 26 30" fill="none" xmlns="http://www.w3.org/2000/svg">
<path d="M18.7334 7.38086C19.6003 7.38105 22.7139 7.45773 24.7627 10.3184C24.5853 10.4528 21.4727 12.1615 21.4727 15.9629C21.4727 20.3542 25.4222 21.9111 25.5498 21.9531C25.5302 22.049 24.9198 24.0847 23.4619 26.1582C22.1619 27.9821 20.8025 29.8054 18.7344 29.8057C16.666 29.8057 16.1335 28.6349 13.75 28.6348C11.4254 28.6348 10.5973 29.8447 8.70605 29.8447C6.81499 29.8445 5.49524 28.1545 3.97852 26.0811C2.22524 23.6427 0.806734 19.8607 0.806641 16.2705C0.806641 10.5106 4.64836 7.45703 8.43066 7.45703C10.44 7.45707 12.1142 8.74394 13.375 8.74414C14.5766 8.74414 16.4484 7.381 18.7334 7.38086ZM19.2031 0.219727C19.2426 0.392612 19.2627 0.60425 19.2627 0.81543C19.2626 2.33204 18.5919 3.84908 17.6465 4.94336C16.6416 6.15279 14.9082 7.0545 13.5293 7.05469C13.3718 7.05468 13.2136 7.03575 13.1152 7.0166C13.0956 6.93974 13.0566 6.70876 13.0566 6.47852C13.0568 4.94258 13.8648 3.42571 14.7314 2.46582C15.8348 1.21806 17.6666 0.27735 19.2031 0.219727Z" fill="black"/>
</svg>
