<svg width="30" height="31" viewBox="0 0 30 31" fill="none" xmlns="http://www.w3.org/2000/svg">
<circle cx="14.8612" cy="15.3456" r="14.8143" fill="white"/>
<path fill-rule="evenodd" clip-rule="evenodd" d="M21.7185 9.23087C20.4399 8.62711 19.0728 8.18833 17.6435 7.93848C17.4679 8.25877 17.2628 8.68958 17.1214 9.03229C15.602 8.80168 14.0966 8.80168 12.6051 9.03229C12.4638 8.68958 12.254 8.25877 12.0769 7.93848C10.6461 8.18833 9.27735 8.62872 7.99874 9.23407C5.41977 13.1672 4.72065 17.0027 5.07021 20.7837C6.78072 22.0729 8.43841 22.856 10.0681 23.3685C10.4705 22.8096 10.8294 22.2154 11.1385 21.5893C10.5497 21.3635 9.98578 21.0848 9.45291 20.7613C9.59428 20.6556 9.73256 20.5451 9.86616 20.4314C13.1163 21.9656 16.6476 21.9656 19.8589 20.4314C19.9941 20.5451 20.1323 20.6556 20.2721 20.7613C19.7377 21.0864 19.1722 21.3651 18.5834 21.5909C18.8925 22.2154 19.2499 22.8112 19.6538 23.3701C21.2851 22.8576 22.9443 22.0745 24.6548 20.7837C25.065 16.4006 23.9542 12.6003 21.7185 9.23087ZM11.5809 18.4583C10.6052 18.4583 9.80509 17.539 9.80509 16.4196C9.80509 15.3002 10.5881 14.3794 11.5809 14.3794C12.5736 14.3794 13.3737 15.2986 13.3566 16.4196C13.3582 17.539 12.5736 18.4583 11.5809 18.4583ZM16.3683 16.4196C16.3683 17.539 17.1685 18.4583 18.1441 18.4583C19.1368 18.4583 19.9199 17.539 19.9199 16.4196C19.937 15.2986 19.1368 14.3794 18.1441 14.3794C17.1513 14.3794 16.3683 15.3002 16.3683 16.4196Z" fill="#5865F2"/>
</svg>
