<svg width="30" height="31" viewBox="0 0 30 31" fill="none" xmlns="http://www.w3.org/2000/svg">
<path d="M29.2234 15.97C29.2234 14.9948 29.1379 14.0691 28.9913 13.168H15.1855V18.7349H23.0903C22.7359 20.5618 21.6975 22.1047 20.1581 23.1539V26.857H24.874C27.6352 24.2772 29.2234 20.4754 29.2234 15.97Z" fill="#4285F4"/>
<path d="M15.1884 30.4466C19.1469 30.4466 22.4578 29.1135 24.8769 26.8546L20.1609 23.1515C18.8415 24.0402 17.1677 24.5834 15.1884 24.5834C11.3644 24.5834 8.12673 21.9789 6.96607 18.4609H2.10352V22.2751C4.51036 27.1138 9.45843 30.4466 15.1884 30.4466Z" fill="#34A853"/>
<path d="M6.96595 18.4695C6.66051 17.5807 6.50169 16.6303 6.50169 15.6428C6.50169 14.6553 6.67273 13.7049 6.96595 12.8161V9.00195H2.1034C1.10156 11.0016 0.527344 13.2481 0.527344 15.6428C0.527344 18.0375 1.10156 20.284 2.1034 22.2837L6.96595 18.4695Z" fill="#FBBC05"/>
<path d="M15.1884 6.6884C17.3509 6.6884 19.2813 7.44136 20.8085 8.91025L24.9868 4.68874C22.4578 2.29408 19.1469 0.825195 15.1884 0.825195C9.45843 0.825195 4.51036 4.15796 2.10352 8.99665L6.96607 12.8108C8.12673 9.2929 11.3644 6.6884 15.1884 6.6884Z" fill="#EA4335"/>
</svg>
