<svg width="413" height="68" viewBox="0 0 413 68" fill="none" xmlns="http://www.w3.org/2000/svg">
<rect x="0.480469" y="0.964844" width="412.077" height="66.1906" rx="16.144" fill="url(#paint0_linear_2344_1719)"/>
<path d="M119.695 41.5322V25.8498H125.974C127.128 25.8498 128.09 26.0208 128.861 26.3629C129.632 26.7049 130.211 27.1797 130.599 27.7872C130.987 28.3895 131.181 29.0838 131.181 29.87C131.181 30.4826 131.059 31.0211 130.814 31.4857C130.569 31.9451 130.232 32.3229 129.803 32.619C129.379 32.91 128.894 33.1167 128.348 33.2392V33.3924C128.945 33.4179 129.504 33.5864 130.025 33.8978C130.551 34.2092 130.977 34.6457 131.304 35.2072C131.63 35.7636 131.794 36.4273 131.794 37.1981C131.794 38.0302 131.587 38.773 131.174 39.4264C130.765 40.0748 130.16 40.5878 129.359 40.9656C128.557 41.3433 127.569 41.5322 126.395 41.5322H119.695ZM123.011 38.8215H125.714C126.638 38.8215 127.312 38.6454 127.735 38.2931C128.159 37.9358 128.371 37.461 128.371 36.8689C128.371 36.4349 128.266 36.0521 128.057 35.7202C127.848 35.3884 127.549 35.1281 127.161 34.9392C126.778 34.7503 126.321 34.6559 125.79 34.6559H123.011V38.8215ZM123.011 32.4122H125.469C125.923 32.4122 126.326 32.3331 126.679 32.1749C127.036 32.0115 127.317 31.7818 127.521 31.4857C127.73 31.1896 127.835 30.8348 127.835 30.4213C127.835 29.8547 127.633 29.3978 127.23 29.0506C126.832 28.7035 126.265 28.5299 125.53 28.5299H123.011V32.4122ZM139.338 41.7619C138.148 41.7619 137.12 41.5093 136.252 41.0039C135.389 40.4934 134.723 39.7838 134.253 38.8751C133.784 37.9613 133.549 36.902 133.549 35.6973C133.549 34.4823 133.784 33.4205 134.253 32.5118C134.723 31.598 135.389 30.8884 136.252 30.383C137.12 29.8725 138.148 29.6173 139.338 29.6173C140.527 29.6173 141.553 29.8725 142.416 30.383C143.284 30.8884 143.953 31.598 144.422 32.5118C144.892 33.4205 145.127 34.4823 145.127 35.6973C145.127 36.902 144.892 37.9613 144.422 38.8751C143.953 39.7838 143.284 40.4934 142.416 41.0039C141.553 41.5093 140.527 41.7619 139.338 41.7619ZM139.353 39.235C139.894 39.235 140.346 39.0819 140.708 38.7756C141.071 38.4642 141.344 38.0404 141.528 37.5044C141.717 36.9684 141.811 36.3584 141.811 35.6743C141.811 34.9902 141.717 34.3802 141.528 33.8442C141.344 33.3082 141.071 32.8844 140.708 32.573C140.346 32.2616 139.894 32.1059 139.353 32.1059C138.807 32.1059 138.347 32.2616 137.975 32.573C137.607 32.8844 137.329 33.3082 137.14 33.8442C136.956 34.3802 136.864 34.9902 136.864 35.6743C136.864 36.3584 136.956 36.9684 137.14 37.5044C137.329 38.0404 137.607 38.4642 137.975 38.7756C138.347 39.0819 138.807 39.235 139.353 39.235ZM150.498 37.2288L154.733 29.7704H157.949V41.5322H154.84V34.0509L150.62 41.5322H147.381V29.7704H150.498V37.2288ZM154.174 25.6661H156.448C156.443 26.5952 156.098 27.343 155.414 27.9097C154.735 28.4763 153.816 28.7597 152.657 28.7597C151.493 28.7597 150.572 28.4763 149.893 27.9097C149.214 27.343 148.875 26.5952 148.875 25.6661H151.134C151.128 26.0183 151.241 26.3348 151.47 26.6156C151.705 26.8963 152.101 27.0367 152.657 27.0367C153.198 27.0367 153.586 26.8989 153.821 26.6232C154.056 26.3476 154.174 26.0285 154.174 25.6661ZM159.516 32.3357V29.7704H170.175V32.3357H166.385V41.5322H163.276V32.3357H159.516ZM175.403 37.2288L179.637 29.7704H182.853V41.5322H179.745V34.0509L175.525 41.5322H172.286V29.7704H175.403V37.2288ZM190.726 41.5322V29.7704H195.742C197.192 29.7704 198.338 30.0461 199.18 30.5974C200.022 31.1488 200.443 31.9324 200.443 32.9483C200.443 33.5864 200.206 34.1173 199.731 34.541C199.257 34.9647 198.598 35.2506 197.756 35.3986C198.46 35.4497 199.06 35.6105 199.555 35.8811C200.055 36.1465 200.436 36.4911 200.696 36.9148C200.962 37.3385 201.094 37.8082 201.094 38.3238C201.094 38.9925 200.916 39.5668 200.558 40.0467C200.206 40.5266 199.688 40.8941 199.004 41.1494C198.325 41.4046 197.495 41.5322 196.515 41.5322H190.726ZM193.766 39.0895H196.515C196.97 39.0895 197.324 38.9823 197.58 38.7679C197.84 38.5484 197.97 38.2497 197.97 37.872C197.97 37.4534 197.84 37.1241 197.58 36.8842C197.324 36.6442 196.97 36.5243 196.515 36.5243H193.766V39.0895ZM193.766 34.6099H195.811C196.137 34.6099 196.416 34.564 196.645 34.4721C196.88 34.3751 197.059 34.2373 197.181 34.0586C197.309 33.8799 197.373 33.6681 197.373 33.423C197.373 33.0606 197.227 32.7772 196.936 32.573C196.645 32.3688 196.247 32.2667 195.742 32.2667H193.766V34.6099ZM211.762 41.7543C211.012 41.7543 210.343 41.6241 209.756 41.3638C209.169 41.0983 208.704 40.7078 208.362 40.1922C208.025 39.6715 207.857 39.0231 207.857 38.2472C207.857 37.5938 207.977 37.045 208.217 36.6008C208.457 36.1567 208.783 35.7994 209.197 35.5288C209.61 35.2582 210.08 35.054 210.606 34.9162C211.137 34.7784 211.693 34.6814 212.275 34.6252C212.959 34.5538 213.511 34.4874 213.929 34.4261C214.348 34.3598 214.651 34.2628 214.84 34.1352C215.029 34.0075 215.124 33.8187 215.124 33.5685V33.5226C215.124 33.0376 214.971 32.6624 214.664 32.3969C214.363 32.1315 213.934 31.9987 213.378 31.9987C212.791 31.9987 212.324 32.1289 211.976 32.3893C211.629 32.6445 211.4 32.9661 211.287 33.3541L208.27 33.1091C208.423 32.3944 208.725 31.7767 209.174 31.256C209.623 30.7302 210.202 30.3269 210.912 30.0461C211.627 29.7602 212.454 29.6173 213.393 29.6173C214.047 29.6173 214.672 29.6939 215.269 29.847C215.872 30.0002 216.405 30.2375 216.87 30.5591C217.339 30.8808 217.709 31.2943 217.98 31.7996C218.25 32.2999 218.386 32.8998 218.386 33.5991V41.5322H215.292V39.9012H215.2C215.011 40.2688 214.759 40.5929 214.442 40.8737C214.126 41.1494 213.745 41.3663 213.301 41.5246C212.857 41.6777 212.344 41.7543 211.762 41.7543ZM212.696 39.503C213.176 39.503 213.6 39.4086 213.967 39.2197C214.335 39.0257 214.623 38.7653 214.833 38.4386C215.042 38.1119 215.147 37.7418 215.147 37.3283V36.0801C215.045 36.1465 214.904 36.2078 214.725 36.2639C214.552 36.315 214.355 36.3635 214.136 36.4094C213.916 36.4503 213.697 36.4885 213.477 36.5243C213.258 36.5549 213.059 36.583 212.88 36.6085C212.497 36.6647 212.163 36.754 211.877 36.8765C211.591 36.999 211.369 37.1649 211.211 37.3742C211.052 37.5784 210.973 37.8337 210.973 38.14C210.973 38.5841 211.134 38.9236 211.456 39.1584C211.782 39.3881 212.196 39.503 212.696 39.503ZM221.05 41.5322V29.7704H224.312V34.3343H225.231L228.432 29.7704H232.26L228.103 35.6054L232.306 41.5322H228.432L225.53 37.3589H224.312V41.5322H221.05ZM233.818 41.5322V29.7704H237.08V34.3343H237.999L241.2 29.7704H245.029L240.871 35.6054L245.075 41.5322H241.2L238.298 37.3589H237.08V41.5322H233.818ZM249.94 41.7543C249.19 41.7543 248.521 41.6241 247.934 41.3638C247.347 41.0983 246.883 40.7078 246.541 40.1922C246.204 39.6715 246.035 39.0231 246.035 38.2472C246.035 37.5938 246.155 37.045 246.395 36.6008C246.635 36.1567 246.962 35.7994 247.375 35.5288C247.789 35.2582 248.258 35.054 248.784 34.9162C249.315 34.7784 249.872 34.6814 250.454 34.6252C251.138 34.5538 251.689 34.4874 252.108 34.4261C252.526 34.3598 252.83 34.2628 253.019 34.1352C253.208 34.0075 253.302 33.8187 253.302 33.5685V33.5226C253.302 33.0376 253.149 32.6624 252.843 32.3969C252.541 32.1315 252.113 31.9987 251.556 31.9987C250.969 31.9987 250.502 32.1289 250.155 32.3893C249.808 32.6445 249.578 32.9661 249.466 33.3541L246.449 33.1091C246.602 32.3944 246.903 31.7767 247.352 31.256C247.802 30.7302 248.381 30.3269 249.091 30.0461C249.805 29.7602 250.632 29.6173 251.572 29.6173C252.225 29.6173 252.85 29.6939 253.448 29.847C254.05 30.0002 254.583 30.2375 255.048 30.5591C255.518 30.8808 255.888 31.2943 256.158 31.7996C256.429 32.2999 256.564 32.8998 256.564 33.5991V41.5322H253.471V39.9012H253.379C253.19 40.2688 252.937 40.5929 252.621 40.8737C252.304 41.1494 251.924 41.3663 251.48 41.5246C251.036 41.6777 250.522 41.7543 249.94 41.7543ZM250.875 39.503C251.355 39.503 251.778 39.4086 252.146 39.2197C252.513 39.0257 252.802 38.7653 253.011 38.4386C253.22 38.1119 253.325 37.7418 253.325 37.3283V36.0801C253.223 36.1465 253.083 36.2078 252.904 36.2639C252.73 36.315 252.534 36.3635 252.314 36.4094C252.095 36.4503 251.875 36.4885 251.656 36.5243C251.436 36.5549 251.237 36.583 251.058 36.6085C250.676 36.6647 250.341 36.754 250.055 36.8765C249.769 36.999 249.547 37.1649 249.389 37.3742C249.231 37.5784 249.152 37.8337 249.152 38.14C249.152 38.5841 249.313 38.9236 249.634 39.1584C249.961 39.3881 250.374 39.503 250.875 39.503ZM260.821 45.9429C260.408 45.9429 260.02 45.9097 259.657 45.8434C259.3 45.7821 259.004 45.703 258.769 45.606L259.504 43.1709C259.887 43.2883 260.232 43.3521 260.538 43.3623C260.849 43.3726 261.117 43.3011 261.342 43.1479C261.572 42.9948 261.758 42.7344 261.901 42.3669L262.092 41.8692L257.873 29.7704H261.304L263.739 38.408H263.861L266.319 29.7704H269.773L265.201 42.8034C264.982 43.4364 264.683 43.9877 264.305 44.4574C263.933 44.9321 263.46 45.2971 262.889 45.5524C262.317 45.8127 261.628 45.9429 260.821 45.9429ZM279.761 34.3496V36.9148H273.62V34.3496H279.761ZM274.692 29.7704V41.5322H271.576V29.7704H274.692ZM281.806 29.7704V41.5322H278.712V29.7704H281.806ZM283.289 32.3357V29.7704H293.948V32.3357H290.158V41.5322H287.049V32.3357H283.289Z" fill="white"/>
<defs>
<linearGradient id="paint0_linear_2344_1719" x1="0.480469" y1="34.0601" x2="412.557" y2="34.0601" gradientUnits="userSpaceOnUse">
<stop stop-color="#5173BB"/>
<stop offset="1" stop-color="#4F1989"/>
</linearGradient>
</defs>
</svg>
