<svg width="44" height="38" viewBox="0 0 44 38" fill="none" xmlns="http://www.w3.org/2000/svg">
<path d="M20.6554 0.15927C21.266 0.0173381 21.8948 -0.030311 22.5197 0.0186445L23.2335 0.0743086L23.4503 0.095793C23.9572 0.154094 24.4553 0.27706 24.9318 0.461027L25.2482 0.592863C25.9759 0.92263 26.6319 1.39523 27.1769 1.98251L27.5285 2.36142L27.758 2.62314C27.9798 2.89129 28.1784 3.17828 28.3517 3.48056L30.3566 6.97763L30.3683 6.99814L30.3791 7.01767L33.2355 12.4151C34.0055 12.2196 34.7984 12.1183 35.5968 12.1183H35.6798C36.1136 12.1183 36.547 12.1519 36.9757 12.2179L37.5998 12.3136C38.7631 12.4925 39.8536 12.9939 40.7472 13.7599L40.9328 13.9249C41.3574 14.3189 41.7255 14.7705 42.0275 15.2657L42.0968 15.379L42.2482 15.6388C42.5881 16.2529 42.8362 16.9143 42.9835 17.6017L42.9962 17.6632L43.0695 18.0538C43.132 18.4453 43.1632 18.8415 43.1632 19.2384V19.3868C43.1632 19.8927 43.1185 20.3973 43.0294 20.8946L42.9259 21.3888L42.8556 21.6788C42.6811 22.4036 42.3917 23.0951 41.9982 23.7267L41.8224 23.9942L41.7296 24.129C41.3239 24.718 40.8187 25.2305 40.2375 25.6446L40.3937 25.9386L40.5421 26.2374C40.6818 26.5401 40.7962 26.8541 40.8849 27.1759L41.1378 28.0919C41.3192 28.7502 41.3873 29.4383 41.3439 30.1163L41.3185 30.4063C41.2891 30.669 41.2424 30.9327 41.1789 31.1915L41.1095 31.4483L40.8322 32.3976C40.6277 33.0967 40.2998 33.754 39.8644 34.338L39.6408 34.6388C39.2517 35.1606 38.7811 35.6174 38.2482 35.9913L37.3058 36.6524C36.6714 37.0975 35.9592 37.4179 35.2072 37.5968L34.882 37.6642L33.5724 37.9015C33.2122 37.9667 32.8467 38.0001 32.4806 38.0001H11.1984C10.9345 38.0001 10.6708 37.9833 10.4093 37.9493L10.1476 37.9093L8.72867 37.6622C7.95297 37.527 7.21178 37.2431 6.54507 36.8282L6.26382 36.6427L5.47671 36.0909C4.90688 35.6911 4.41003 35.1967 4.00699 34.6309L3.83999 34.3839L3.53628 33.9102C2.99227 33.062 2.66546 32.0926 2.58609 31.088L2.52261 30.2765C2.46671 29.5677 2.53396 28.8544 2.72281 28.169L2.99527 27.1827L3.0939 26.8595C3.14268 26.7143 3.19665 26.5709 3.25601 26.4298L3.10269 26.2403L3.02652 26.1417C2.82447 25.8819 2.63575 25.6111 2.46304 25.3311L2.29605 25.0479L2.05679 24.627C1.69309 23.9868 1.41027 23.3038 1.21499 22.5938C1.07053 22.0685 0.974887 21.5303 0.928861 20.9874L0.879056 20.4034C0.814214 19.6382 0.816371 18.8684 0.885892 18.1036L0.914212 17.796L0.967923 17.3272C1.03306 16.8593 1.1316 16.3958 1.26284 15.9415L1.34878 15.6593C1.5594 15.0041 1.83814 14.3725 2.17984 13.7745L2.2521 13.6485L2.44839 13.3165C2.92155 12.5513 3.48641 11.8459 4.13003 11.2159L4.38101 10.9708L4.74136 10.6339C5.10978 10.3055 5.5013 10.0036 5.91226 9.72958L6.05191 9.63583C6.48945 9.34414 6.95285 9.09315 7.4357 8.88486C8.52679 8.41418 9.70249 8.17102 10.8908 8.17099H11.5539C12.0098 8.17101 12.4647 8.20138 12.9152 8.26083L13.5802 7.01474L13.59 6.99423L13.6017 6.9747L15.2658 4.08798L15.3996 3.86728C15.5375 3.64964 15.6893 3.44094 15.8537 3.24228L16.4093 2.5704L16.5949 2.35556C17.0394 1.86648 17.5608 1.45202 18.1388 1.129L18.5636 0.892668L18.7531 0.790129C19.1998 0.56071 19.6736 0.387411 20.1632 0.273527L20.6554 0.15927ZM23.8849 24.0577L23.8537 24.0899L23.8195 24.1202L22.3878 25.4034C21.2646 26.41 20.0153 27.2673 18.672 27.9532L18.4562 28.0636C17.4461 28.5794 16.3767 28.9843 15.2794 29.2686L14.8078 29.3829C13.6945 29.6347 12.5475 29.7638 11.4044 29.7638H11.0099C10.4614 29.7638 9.91355 29.7239 9.37124 29.6446L8.8312 29.5518L8.76773 29.5401C8.11071 29.4113 7.46702 29.2205 6.84585 28.9718L6.5812 28.8614L6.37515 28.7735C6.07362 28.6433 5.78103 28.4939 5.49722 28.3292L5.34292 28.8907C5.23792 29.2718 5.19957 29.6685 5.23062 30.0626L5.29507 30.8741C5.33924 31.4328 5.52088 31.9717 5.82339 32.4434L6.1271 32.9171L6.21988 33.0548C6.44399 33.3693 6.72043 33.644 7.03726 33.8663L7.82437 34.4181L7.98062 34.5216C8.3514 34.7523 8.76407 34.9103 9.19546 34.9854L10.6144 35.2325L10.9054 35.2706C11.0028 35.279 11.1006 35.2833 11.1984 35.2833H32.4806C32.6842 35.2833 32.8877 35.2649 33.088 35.2286L34.3976 34.9913L34.5783 34.9532C34.9965 34.8537 35.3924 34.6753 35.7453 34.4278L36.6886 33.7667C36.9848 33.5588 37.2458 33.3048 37.4621 33.0147L37.6867 32.714L37.8566 32.463C38.0154 32.2049 38.1394 31.9265 38.2248 31.6349L38.5021 30.6856L38.5724 30.3985C38.5919 30.3013 38.6073 30.2028 38.6183 30.1046L38.633 29.9425C38.6573 29.562 38.6187 29.1766 38.5187 28.8136L38.2658 27.8976C38.2165 27.7188 38.1529 27.5443 38.0753 27.3761L37.9933 27.2091L37.7199 26.6934C37.3769 26.7526 37.0279 26.7833 36.6769 26.7833H36.0353C35.0752 26.7833 34.1226 26.6177 33.2209 26.294L32.838 26.1456L32.1701 25.8683C31.3715 25.5364 30.6109 25.119 29.9025 24.6231L28.9005 23.922L28.8244 23.8683L28.755 23.8058L26.7384 21.9786L26.298 21.6163L23.8849 24.0577ZM6.74624 25.6036L6.89077 25.6964C7.10392 25.8264 7.32643 25.9411 7.55581 26.0401L7.76089 26.129L8.14566 26.2833C8.53384 26.4268 8.93344 26.5385 9.33999 26.6183L9.40347 26.6309L9.80191 26.6993C10.2017 26.7578 10.6056 26.7872 11.0099 26.7872H11.4044C12.325 26.7872 13.252 26.683 14.1515 26.4796L14.5334 26.3868C15.4217 26.1565 16.2875 25.8285 17.1027 25.4122L17.3185 25.3018L17.7326 25.0821C18.6903 24.5533 19.586 23.9174 20.4015 23.1866L21.8009 21.9317L24.09 19.6153L21.0636 16.9259L21.0548 16.9171L19.0421 15.0977L19.0285 15.086L17.9455 14.0831C17.3446 13.5267 16.6926 13.0279 15.9982 12.5938L15.4904 12.2765C15.0804 12.0202 14.6453 11.8067 14.1935 11.6349L6.74624 25.6036ZM31.9357 16.1886L31.6212 16.3927C30.9088 16.8544 30.2492 17.3944 29.6564 18.002L29.1369 18.5352L28.3351 19.4366L28.6476 19.6934L28.675 19.7169L28.7023 19.7413L30.6867 21.5382L31.6095 22.1837C32.1415 22.5561 32.713 22.87 33.3126 23.1192L33.9806 23.3966L34.2267 23.4923C34.8062 23.7002 35.4184 23.8067 36.0353 23.8067H36.1925L32.1037 16.0841C32.0473 16.1183 31.991 16.1527 31.9357 16.1886ZM10.8908 11.1476C10.108 11.1476 9.33316 11.3072 8.61441 11.6173C8.29643 11.7545 7.99143 11.9203 7.70327 12.1124L7.56363 12.2061C7.16985 12.4687 6.80126 12.7677 6.46304 13.0987L6.21206 13.3438C5.67333 13.8712 5.21011 14.4706 4.83609 15.1251L4.76382 15.2511C4.55885 15.6098 4.38707 15.9862 4.24917 16.3751L4.12222 16.7677C4.03039 17.0855 3.96175 17.41 3.91617 17.7374L3.87808 18.0655L3.85074 18.3731C3.79698 18.9646 3.79476 19.5597 3.84488 20.1515L3.89468 20.7354C3.92528 21.0965 3.98905 21.4544 4.08511 21.8038C4.21501 22.2762 4.40268 22.7314 4.64468 23.1573L4.81363 23.4542L11.3761 11.1476H10.8908ZM35.5968 15.0958C35.2922 15.0958 34.9889 15.1177 34.6886 15.1593L38.8195 22.9649C38.9903 22.8071 39.1459 22.633 39.2785 22.4405L39.3712 22.3048L39.4718 22.1524C39.6968 21.7914 39.8623 21.3958 39.9621 20.9815L40.0314 20.6925L40.0988 20.3692C40.1568 20.0452 40.1867 19.7164 40.1867 19.3868V19.2384C40.1867 18.9986 40.1678 18.7591 40.13 18.5226L40.0861 18.2872L40.0724 18.2257C39.9987 17.8819 39.8824 17.5491 39.7257 17.2354L39.5558 16.9288L39.4865 16.8155C39.3498 16.5913 39.187 16.384 39.0021 16.1983L38.8097 16.0196C38.3376 15.615 37.7612 15.3505 37.1466 15.2559L36.5236 15.1602C36.2446 15.1173 35.9621 15.0958 35.6798 15.0958H35.5968ZM22.3078 2.72763C21.9602 2.70038 21.6103 2.72681 21.2707 2.80575L20.7785 2.92001C20.5451 2.9743 20.3181 3.05267 20.1017 3.15439L19.8888 3.26376L19.464 3.50107C19.1885 3.65509 18.9361 3.84658 18.714 4.06943L18.5021 4.30282L17.9464 4.9747C17.8857 5.04815 17.8279 5.12402 17.7736 5.20224L17.6203 5.44443L15.963 8.3165L15.6027 8.9913C16.1104 9.2059 16.6007 9.46063 17.0685 9.75302L17.5753 10.0694L17.8927 10.2735C18.6276 10.7573 19.322 11.3005 19.9679 11.8985L21.0382 12.8897L23.0412 14.7003L26.1251 17.4415L26.9386 16.5274L26.9621 16.5011L26.9865 16.4767L27.5265 15.9229C28.2737 15.1571 29.1043 14.4766 30.0021 13.8946L30.3166 13.6905C30.4455 13.607 30.5765 13.5266 30.7091 13.4493L27.9796 8.29306L25.9953 4.83212C25.8988 4.66391 25.7877 4.50379 25.6642 4.35458L25.5363 4.20907L25.1857 3.83017C24.8864 3.50769 24.5257 3.24848 24.1261 3.06747L23.9533 2.99521C23.7292 2.90869 23.496 2.84667 23.2589 2.81064L23.0207 2.78329L22.3078 2.72763Z" fill="white"/>
</svg>
