<svg width="43" height="38" viewBox="0 0 43 38" fill="none" xmlns="http://www.w3.org/2000/svg">
<path d="M6.78711 0.00795361C6.98193 -0.0198132 7.18 0.0257418 7.34375 0.134907L7.46777 0.216938C7.53915 0.26452 7.60552 0.320205 7.66504 0.381977L18.2627 11.381L18.7012 11.8917C19.0548 12.3043 19.3502 12.7636 19.5801 13.256C19.7267 13.5701 19.8454 13.8969 19.9355 14.2316L20.0811 14.7687C20.2713 15.4755 20.3672 16.2047 20.3672 16.9367V17.1203C20.3671 18.0883 20.1772 19.0474 19.8086 19.9425C19.429 20.8641 18.8681 21.7 18.1582 22.3996L2.7041 37.6281C2.60584 37.7248 2.49079 37.8034 2.36523 37.8605L2.25488 37.9103C1.89653 38.0731 1.47621 38.0085 1.18359 37.7453C0.974967 37.5575 0.855469 37.2896 0.855469 37.0089V36.9464C0.855493 36.7462 0.908871 36.5491 1.00977 36.3761L4.82227 29.84L8.94043 22.6505C9.5931 21.5108 10.0971 20.2922 10.4404 19.0246L10.6387 18.2931C10.8625 17.4667 10.9756 16.6142 10.9756 15.758C10.9756 14.5243 10.7404 13.3018 10.2822 12.1564L8.06152 6.60366L6.02539 1.12416C5.97993 1.00176 5.96951 0.868416 5.99512 0.740375C6.02239 0.604264 6.08936 0.479181 6.1875 0.381L6.33398 0.234516C6.45642 0.112082 6.6157 0.0324404 6.78711 0.00795361ZM37.0684 0.00795361C37.2398 0.0324404 37.3991 0.112082 37.5215 0.234516L37.668 0.381C37.7661 0.479175 37.8331 0.60427 37.8604 0.740375C37.886 0.868416 37.8755 1.00176 37.8301 1.12416L35.7939 6.60366L33.5732 12.1564C33.1151 13.3018 32.8799 14.5243 32.8799 15.758C32.8799 16.6142 32.993 17.4667 33.2168 18.2931L33.415 19.0246C33.7584 20.2922 34.2624 21.5108 34.915 22.6505L39.0332 29.84L42.8457 36.3771C42.9465 36.55 43 36.7463 43 36.9464V37.0099C42.9999 37.2904 42.8804 37.5576 42.6719 37.7453C42.3793 38.0084 41.9589 38.0739 41.6006 37.9113L41.4902 37.8605C41.3647 37.8034 41.2496 37.7248 41.1514 37.6281L25.6973 22.3996C24.9874 21.7 24.4264 20.8641 24.0469 19.9425C23.6783 19.0474 23.4883 18.0883 23.4883 17.1203V16.9367C23.4883 16.2046 23.5841 15.4756 23.7744 14.7687L23.9199 14.2316C24.01 13.8969 24.1288 13.5701 24.2754 13.256C24.5052 12.7636 24.8006 12.3043 25.1543 11.8917L25.5928 11.381L36.1904 0.381977C36.2499 0.320205 36.3163 0.26452 36.3877 0.216938L36.5117 0.134907C36.6755 0.0257428 36.8735 -0.0198116 37.0684 0.00795361Z" fill="white"/>
</svg>
