<svg width="84" height="75" viewBox="0 0 84 75" fill="none" xmlns="http://www.w3.org/2000/svg">
<path d="M39.4028 0.242213C40.5838 0.0150493 41.7912 -0.0531087 42.9917 0.0410408L44.2124 0.136744C45.382 0.228526 46.532 0.490558 47.6264 0.913111L47.9468 1.04202C49.5365 1.70847 50.9668 2.70721 52.1411 3.97268L52.7407 4.61819L52.9975 4.90237C53.5854 5.57321 54.1054 6.3018 54.5493 7.0762L58.4077 13.8076L58.4331 13.8516L58.4565 13.8955L63.9194 24.2168C65.3792 23.8664 66.8793 23.6875 68.3882 23.6875H68.5493C69.4162 23.6875 70.2823 23.754 71.1391 23.8858L72.3608 24.0733L72.7973 24.1485C74.9748 24.5617 77.0091 25.5387 78.6958 26.9844L79.0698 27.3174C79.9246 28.1106 80.6669 29.0187 81.2749 30.0156L81.4096 30.2373C82.2488 31.6136 82.8502 33.1222 83.188 34.6983L83.2143 34.8184L83.2924 35.209C83.4627 36.1206 83.5483 37.0467 83.5483 37.9746V38.2657C83.5483 39.4447 83.4268 40.6204 83.185 41.7735L83.0737 42.2666L82.937 42.833C82.5865 44.2888 82.0048 45.6779 81.2143 46.9463L80.8628 47.4824L80.6801 47.7461C79.9165 48.8547 78.9776 49.829 77.9028 50.6328L77.9975 50.8116L78.1645 51.1377C78.5435 51.9035 78.8485 52.7041 79.0757 53.5283L79.5317 55.1846L79.6753 55.7569C79.934 56.9073 80.0278 58.0889 79.9526 59.2657L79.9008 59.8535C79.8412 60.3869 79.7468 60.9158 79.6186 61.4366L79.479 61.9541L78.9956 63.6074C78.5467 65.1422 77.8273 66.5853 76.8716 67.8672L76.6626 68.1465C75.9152 69.1489 75.0323 70.0416 74.0395 70.7989L73.6079 71.1153L72.1167 72.1612C70.6244 73.208 68.9354 73.9394 67.1538 74.3125L66.7964 74.3828L64.5776 74.7852C63.7872 74.9284 62.9853 75 62.1821 75H20.7339C20.1541 75 19.5749 74.9625 19.0005 74.8877L18.4282 74.8008L15.9966 74.377C14.1719 74.0591 12.4338 73.3679 10.8911 72.3477L10.5854 72.1397L9.43503 71.333C8.09498 70.3928 6.93904 69.2158 6.02292 67.8614L5.84226 67.5879L5.52195 67.0879C4.4021 65.3419 3.70255 63.3618 3.47605 61.3037L3.43698 60.8916L3.35007 59.7871C3.22724 58.2311 3.37688 56.665 3.79148 55.1602L4.23679 53.544C4.36889 53.0646 4.52742 52.593 4.7114 52.1319L4.51902 51.8946L4.36863 51.7012C3.96544 51.1828 3.59024 50.6426 3.24558 50.084L2.91062 49.5186L2.44284 48.6963C1.80715 47.5775 1.29579 46.3926 0.916477 45.1641L0.761203 44.6348C0.508713 43.7166 0.331127 42.7793 0.228977 41.833L0.189914 41.4278L0.0932347 40.2842C-0.0353978 38.7661 -0.0310101 37.239 0.106907 35.7217L0.161594 35.1211L0.209446 34.6524C0.334954 33.5611 0.551905 32.4816 0.856907 31.4258L1.02781 30.8633C1.44755 29.5574 2.00298 28.2984 2.68406 27.1065L2.82468 26.8604C3.84019 25.0832 5.09727 23.4552 6.56003 22.0235L7.05124 21.543C7.98803 20.6262 9.00846 19.7984 10.0991 19.0713L10.3725 18.8887L10.7026 18.6748C11.4785 18.1825 12.2921 17.7519 13.1362 17.3877L13.5473 17.2168C15.6099 16.3889 17.8133 15.9629 20.0385 15.9629H21.3354L21.7846 15.9678C22.4672 15.9826 23.1477 16.0305 23.8237 16.1123L25.0102 13.8877L25.0337 13.8448L25.0581 13.8018L28.268 8.23342L28.56 7.75003C28.8629 7.27229 29.1962 6.81403 29.5571 6.37795L30.4487 5.29983L30.8569 4.8301C31.8325 3.75658 32.9769 2.84677 34.2456 2.13772L34.7505 1.85549L35.1675 1.63186C36.1482 1.1282 37.1881 0.747047 38.2632 0.497095L38.8979 0.349635L39.4028 0.242213ZM45.7202 47.6563L45.6509 47.7266L45.5766 47.793L42.7739 50.3037C40.6917 52.1696 38.3913 53.776 35.9233 55.0869L35.4282 55.3448L35.0044 55.5606C33.0046 56.5817 30.8882 57.3834 28.7163 57.9463L27.7827 58.1729C25.5785 58.6714 23.308 58.9268 21.0444 58.9268H20.2719C18.818 58.9268 17.3667 58.7856 15.9399 58.5059L15.8149 58.4815C14.5075 58.2251 13.2268 57.8475 11.9907 57.3526L11.4634 57.1328L11.062 56.959C10.5866 56.7537 10.1222 56.5237 9.66843 56.2754L9.5405 56.7442C9.30996 57.581 9.2271 58.4521 9.29538 59.3174L9.3823 60.4219L9.43308 60.8799C9.58327 61.9422 9.96034 62.962 10.5415 63.8682L10.8628 64.3682L11.0659 64.669C11.558 65.3598 12.165 65.963 12.8608 66.4512L14.0102 67.2578L14.354 67.4844C15.1679 67.991 16.073 68.337 17.02 68.502L19.4516 68.9258L19.77 68.9737C20.0894 69.0152 20.4115 69.0361 20.7339 69.0362H62.1821C62.6287 69.0361 63.0747 68.9966 63.5141 68.917L65.7319 68.5147L66.1284 68.4317C67.0465 68.2133 67.9163 67.8226 68.6909 67.2793L70.1831 66.2324L70.4233 66.0567C70.9751 65.6357 71.4659 65.1392 71.8813 64.5821L72.0903 64.3028C72.6218 63.5898 73.0223 62.7871 73.2719 61.9336L73.7553 60.2803L73.8276 60.0117C73.8941 59.7416 73.9431 59.4671 73.9741 59.1905L74.0005 58.8858C74.0395 58.2753 73.9911 57.6623 73.8569 57.0655L73.7827 56.7686L73.3266 55.1133C73.2184 54.7204 73.0783 54.3365 72.9077 53.9668L72.727 53.6016L72.3813 52.9483C71.7616 53.0436 71.1335 53.0947 70.5014 53.0948H69.2446C67.0508 53.0948 64.8779 52.6612 62.852 51.8194L61.5454 51.2764C60.1574 50.6996 58.8272 49.9927 57.5737 49.1651L57.0405 48.8028L55.0805 47.4297L54.9126 47.3125L54.7612 47.1748L50.7954 43.584L50.2153 43.1084L45.7202 47.6563ZM12.3598 50.2871L12.396 50.3106C12.7988 50.5562 13.2193 50.7738 13.6528 50.961L14.0542 51.1338L14.4194 51.2862C15.2769 51.6295 16.1657 51.8925 17.0727 52.0703L17.1977 52.0948C18.2102 52.2932 19.2402 52.3926 20.2719 52.3926H21.0444C22.8193 52.3926 24.6065 52.1922 26.3413 51.7998L27.0776 51.6211C28.7914 51.1769 30.4605 50.5441 32.0327 49.7412L32.4565 49.5254L33.2573 49.1006C35.1079 48.0788 36.8378 46.8496 38.4135 45.4375L41.1421 42.9922L45.355 38.7305L39.7114 33.7139L39.7007 33.7051L39.6909 33.6953L35.7524 30.1358L35.7378 30.1231L35.7241 30.1094L33.604 28.1465C32.5893 27.207 31.4987 26.3528 30.3442 25.5928L29.8452 25.2725L28.853 24.6524C28.1468 24.211 27.4024 23.8331 26.6303 23.5225L12.3598 50.2871ZM61.4145 32.3047L60.7993 32.7041C59.5988 33.4822 58.4771 34.3751 57.4507 35.3701L57.0161 35.8028L56.02 36.8233L54.685 38.3242L55.0122 38.5928L55.0737 38.6426L55.1323 38.6963L58.9936 42.1934L60.7876 43.4492L61.1743 43.7119C62.0829 44.3119 63.0471 44.8251 64.0532 45.2432L65.3598 45.7862C66.5145 46.2659 67.7479 46.5232 68.9966 46.5537L61.4438 32.2862L61.4145 32.3047ZM20.0385 22.4961C18.7405 22.4961 17.4545 22.7291 16.2407 23.1807L15.7251 23.3877C15.2728 23.5828 14.834 23.8083 14.4126 24.0625L13.9975 24.3262L13.7231 24.5078C12.9709 25.0093 12.2676 25.5806 11.6216 26.2129L11.1313 26.6924C10.1003 27.7015 9.21333 28.849 8.49753 30.1016L8.35691 30.3487C7.90108 31.1464 7.52943 31.9892 7.24851 32.8633L7.13425 33.2393C6.90092 34.047 6.74455 34.8756 6.66843 35.7129L6.61374 36.3135C6.5104 37.4505 6.50759 38.5948 6.60398 39.7324L6.70066 40.876L6.75632 41.3877C6.82338 41.8986 6.92526 42.4052 7.06198 42.9024L7.15964 43.2364C7.39932 44.0126 7.72279 44.7618 8.12449 45.4688L8.14792 45.5108L20.4204 22.4961H20.0385ZM68.3882 30.2217C67.9677 30.2217 67.5481 30.2425 67.1313 30.2842L74.7641 44.7032C74.9574 44.4954 75.1375 44.2748 75.2993 44.0401L75.4819 43.7754L75.6684 43.4903C76.0886 42.816 76.3981 42.0776 76.5844 41.3037L76.7212 40.7373L76.7895 40.4326C76.9389 39.7204 77.0141 38.994 77.0141 38.2657V37.9746C77.0141 37.5242 76.9786 37.0743 76.9077 36.6299L76.8247 36.1875L76.7993 36.0674C76.6155 35.2097 76.2881 34.3887 75.8315 33.6397L75.6958 33.418C75.4006 32.934 75.0404 32.4926 74.6255 32.1074L74.4438 31.9453C73.6249 31.2434 72.6368 30.7692 71.5796 30.5684L71.3667 30.5323L70.146 30.3438C69.6179 30.2625 69.0836 30.2217 68.5493 30.2217H68.3882ZM42.5249 5.98635C41.8571 5.93401 41.1857 5.97227 40.5288 6.09866L40.2485 6.15823L39.6137 6.30569C39.016 6.44468 38.4374 6.65652 37.8921 6.93655L37.6596 7.06155L37.1548 7.34378C36.4492 7.73811 35.8126 8.24382 35.27 8.84085L35.0434 9.10256L34.1518 10.1797C33.9511 10.4222 33.7656 10.6777 33.5971 10.9434L33.4341 11.2119L30.2446 16.7451L29.7163 17.7334C30.6137 18.1303 31.4828 18.5907 32.3159 19.1114L33.3081 19.7315L33.936 20.1348C35.3907 21.0923 36.7649 22.1688 38.0434 23.3526L40.1333 25.2881H40.1343L44.0522 28.8301L49.8227 33.959L51.1792 32.4336L51.23 32.377L51.2827 32.3233L52.3393 31.2403L52.9018 30.6787C54.2331 29.3881 55.6876 28.2299 57.2446 27.2207L57.8608 26.8213L58.1938 26.6104C58.2555 26.5721 58.3182 26.5356 58.3803 26.4981L53.2163 16.7422L49.3755 10.042C49.1639 9.67289 48.9208 9.32259 48.6499 8.99514L48.3696 8.67483L47.77 8.02932C47.2137 7.42984 46.5441 6.94789 45.8012 6.61135L45.479 6.47659C44.9234 6.26208 44.3393 6.12862 43.7456 6.08206L42.5249 5.98635Z" fill="white"/>
</svg>
