<svg width="95" height="22" viewBox="0 0 95 22" fill="none" xmlns="http://www.w3.org/2000/svg">
<path d="M53.6998 5.12598C58.2956 5.12603 61.1978 8.23408 61.1978 13.0361V14.3477H50.3121V14.6123C50.3121 16.866 51.7404 18.413 53.9351 18.4131C55.5113 18.4131 56.719 17.6317 57.1167 16.4238H61.065C60.5936 19.5172 57.7654 21.5947 53.8619 21.5947C49.0008 21.5947 46.0835 18.4862 46.0835 13.4336C46.0837 8.39596 49.0303 5.12598 53.6998 5.12598ZM70.5953 5.12598C74.8669 5.12598 77.5774 7.7625 77.7691 11.3418H73.7769C73.5264 9.67762 72.4221 8.49918 70.6548 8.49902C68.5336 8.49902 67.2076 10.2965 67.2076 13.3457C67.2076 16.4538 68.5336 18.2217 70.6695 18.2217C72.3928 18.2216 73.5117 17.1901 73.7769 15.4668H77.7837C77.5628 19.1936 74.7785 21.5947 70.6246 21.5947C65.8669 21.5945 62.8473 18.5011 62.8472 13.3457C62.8472 8.27851 65.8669 5.1261 70.5953 5.12598ZM34.0201 0C40.3981 0.000154089 44.1539 3.80044 44.1539 10.5469C44.1538 17.2933 40.3981 21.2557 34.0201 21.2559H25.9029V0H34.0201ZM84.2652 11.7988H84.3248L89.6861 5.46484H94.5621L88.5377 12.2412L94.857 21.2559H89.9068L85.3853 14.833L84.2652 16.041V21.2559H79.9644V0H84.2652V11.7988ZM8.45366 1.88574C9.56246 -0.0348097 12.3351 -0.0348097 13.4439 1.88574L21.3443 15.5693C22.453 17.4898 21.0667 19.8906 18.8492 19.8906H3.04937C0.831769 19.8906 -0.554525 17.4898 0.55425 15.5693L8.45366 1.88574ZM30.3521 17.5732H33.4898C37.4668 17.5731 39.6177 15.1573 39.6177 10.5615C39.6177 6.11306 37.4079 3.66814 33.4898 3.66797H30.3521V17.5732ZM53.7437 8.30762C51.8583 8.30769 50.5033 9.7371 50.356 11.7109H57.0582C56.9698 9.69286 55.6587 8.30762 53.7437 8.30762Z" fill="#4D4D4D"/>
</svg>
